<?xml version="1.0" encoding="utf-8"?>
<!-- Generator: Adobe Illustrator 16.0.0, SVG Export Plug-In . SVG Version: 6.00 Build 0)  -->
<!DOCTYPE svg PUBLIC "-//W3C//DTD SVG 1.1//EN" "http://www.w3.org/Graphics/SVG/1.1/DTD/svg11.dtd">
<svg version="1.1" id="Layer_1" xmlns="http://www.w3.org/2000/svg" xmlns:xlink="http://www.w3.org/1999/xlink" x="0px" y="0px"
	 width="17.64px" height="18px" viewBox="0 0 17.64 18" enable-background="new 0 0 17.64 18" xml:space="preserve">
<g>
	<g>
		<defs>
			<path id="SVGID_1_" d="M17.64,9.205c0-0.639-0.057-1.252-0.163-1.841H9v3.481h4.844c-0.209,1.125-0.843,2.078-1.796,2.717v2.258
				h2.908C16.658,14.253,17.64,11.945,17.64,9.205L17.64,9.205L17.64,9.205z M17.64,9.205"/>
		</defs>
		<clipPath id="SVGID_2_">
			<use xlink:href="#SVGID_1_"  overflow="visible"/>
		</clipPath>
		<rect x="4" y="2.364" clip-path="url(#SVGID_2_)" fill="#3F83F2" width="18.64" height="18.456"/>
	</g>
	<g>
		<defs>
			<path id="SVGID_3_" d="M9,18c2.43,0,4.467-0.806,5.956-2.181l-2.908-2.258c-0.806,0.54-1.837,0.859-3.048,0.859
				c-2.344,0-4.328-1.584-5.036-3.711H0.957v2.332C2.438,15.983,5.482,18,9,18L9,18L9,18z M9,18"/>
		</defs>
		<clipPath id="SVGID_4_">
			<use xlink:href="#SVGID_3_"  overflow="visible"/>
		</clipPath>
		<rect x="-4.043" y="5.71" clip-path="url(#SVGID_4_)" fill="#32A753" width="23.999" height="17.29"/>
	</g>
	<g>
		<defs>
			<path id="SVGID_5_" d="M3.964,10.71C3.784,10.17,3.682,9.593,3.682,9c0-0.593,0.103-1.17,0.282-1.71V4.958H0.957
				C0.348,6.173,0,7.548,0,9s0.348,2.827,0.957,4.042L3.964,10.71L3.964,10.71L3.964,10.71z M3.964,10.71"/>
		</defs>
		<clipPath id="SVGID_6_">
			<use xlink:href="#SVGID_5_"  overflow="visible"/>
		</clipPath>
		<rect x="-5" y="-0.042" clip-path="url(#SVGID_6_)" fill="#F9BB00" width="13.964" height="18.084"/>
	</g>
	<g>
		<defs>
			<path id="SVGID_7_" d="M9,3.58c1.321,0,2.508,0.454,3.44,1.346l2.581-2.581C13.463,0.892,11.426,0,9,0
				C5.482,0,2.438,2.017,0.957,4.958L3.964,7.29C4.672,5.163,6.656,3.58,9,3.58L9,3.58L9,3.58z M9,3.58"/>
		</defs>
		<clipPath id="SVGID_8_">
			<use xlink:href="#SVGID_7_"  overflow="visible"/>
		</clipPath>
		<rect x="-4.043" y="-5" clip-path="url(#SVGID_8_)" fill="#E94334" width="24.064" height="17.29"/>
	</g>
</g>
</svg>
